<svg width="102" height="49" viewBox="0 0 102 49" fill="none" xmlns="http://www.w3.org/2000/svg">
<path d="M0 12.4028H2.90834V26.2361H0V12.4028Z" fill="#F8F8F8"/>
<path d="M14.6868 21.2584C14.6868 21.2956 14.6681 21.5566 14.6308 22.0414H7.04305C7.17977 22.6628 7.50292 23.1537 8.0125 23.5142C8.52208 23.8746 9.15595 24.0548 9.91411 24.0548C10.4361 24.0548 10.896 23.9803 11.2937 23.8311C11.7039 23.6695 12.0829 23.421 12.4309 23.0854L13.9783 24.7633C13.0337 25.8446 11.6541 26.3852 9.83953 26.3852C8.70851 26.3852 7.70799 26.1677 6.83798 25.7327C5.96796 25.2853 5.29681 24.6701 4.82451 23.887C4.35222 23.104 4.11607 22.2154 4.11607 21.2211C4.11607 20.2392 4.346 19.3567 4.80587 18.5737C5.27816 17.7783 5.91825 17.1631 6.72612 16.7281C7.54642 16.2806 8.45994 16.0569 9.46667 16.0569C10.4485 16.0569 11.3372 16.2682 12.1326 16.6908C12.9281 17.1133 13.5495 17.7224 13.997 18.5178C14.4568 19.3008 14.6868 20.2143 14.6868 21.2584ZM9.48531 18.2568C8.82659 18.2568 8.27351 18.4432 7.82607 18.8161C7.37863 19.189 7.1052 19.6985 7.00577 20.3448H11.9462C11.8468 19.711 11.5734 19.2076 11.1259 18.8347C10.6785 18.4494 10.1316 18.2568 9.48531 18.2568Z" fill="#F8F8F8"/>
<path d="M22.3465 25.7514C22.0606 25.9627 21.7064 26.1242 21.2838 26.2361C20.8737 26.3355 20.4387 26.3852 19.9788 26.3852C18.7857 26.3852 17.8597 26.0807 17.201 25.4717C16.5547 24.8627 16.2315 23.9678 16.2315 22.7871V18.6669H14.6841V16.4298H16.2315V13.9875H19.1399V16.4298H21.6381V18.6669H19.1399V22.7498C19.1399 23.1724 19.2455 23.5018 19.4568 23.7379C19.6805 23.9616 19.9912 24.0735 20.389 24.0735C20.8488 24.0735 21.2403 23.9492 21.5635 23.7006L22.3465 25.7514Z" fill="#F8F8F8"/>
<path d="M36.0785 16.0569C37.3338 16.0569 38.3282 16.4298 39.0615 17.1755C39.8072 17.9088 40.18 19.015 40.18 20.494V26.2361H37.2717V20.9414C37.2717 20.146 37.1039 19.5556 36.7683 19.1703C36.4452 18.7726 35.9791 18.5737 35.3701 18.5737C34.6865 18.5737 34.1459 18.7975 33.7481 19.2449C33.3504 19.6799 33.1516 20.3324 33.1516 21.2024V26.2361H30.2432V20.9414C30.2432 19.363 29.6093 18.5737 28.3416 18.5737C27.6705 18.5737 27.136 18.7975 26.7383 19.2449C26.3406 19.6799 26.1417 20.3324 26.1417 21.2024V26.2361H23.2334V16.206H26.0112V17.3619C26.3841 16.9393 26.8377 16.6162 27.3722 16.3925C27.919 16.1688 28.5156 16.0569 29.1619 16.0569C29.8704 16.0569 30.5104 16.1998 31.0822 16.4857C31.6539 16.7591 32.1137 17.1631 32.4618 17.6975C32.8719 17.1755 33.3877 16.7716 34.0091 16.4857C34.643 16.1998 35.3328 16.0569 36.0785 16.0569Z" fill="#F8F8F8"/>
<path d="M51.9754 21.2584C51.9754 21.2956 51.9567 21.5566 51.9194 22.0414H44.3317C44.4684 22.6628 44.7915 23.1537 45.3011 23.5142C45.8107 23.8746 46.4445 24.0548 47.2027 24.0548C47.7247 24.0548 48.1846 23.9803 48.5823 23.8311C48.9925 23.6695 49.3715 23.421 49.7195 23.0854L51.2669 24.7633C50.3223 25.8446 48.9427 26.3852 47.1281 26.3852C45.9971 26.3852 44.9966 26.1677 44.1266 25.7327C43.2566 25.2853 42.5854 24.6701 42.1131 23.887C41.6408 23.104 41.4047 22.2154 41.4047 21.2211C41.4047 20.2392 41.6346 19.3567 42.0945 18.5737C42.5668 17.7783 43.2068 17.1631 44.0147 16.7281C44.835 16.2806 45.7485 16.0569 46.7553 16.0569C47.7371 16.0569 48.6258 16.2682 49.4212 16.6908C50.2167 17.1133 50.8381 17.7224 51.2856 18.5178C51.7454 19.3008 51.9754 20.2143 51.9754 21.2584ZM46.7739 18.2568C46.1152 18.2568 45.5621 18.4432 45.1147 18.8161C44.6672 19.189 44.3938 19.6985 44.2944 20.3448H49.2348C49.1354 19.711 48.862 19.2076 48.4145 18.8347C47.9671 18.4494 47.4202 18.2568 46.7739 18.2568Z" fill="#F8F8F8"/>
<path d="M68.9799 16.206L66.9851 26.2361H64.2259L64.4123 25.248C63.5796 26.0062 62.5542 26.3852 61.3362 26.3852C60.5532 26.3852 59.8323 26.205 59.1736 25.8446C58.5149 25.4841 57.9866 24.9684 57.5889 24.2972C57.2036 23.6136 57.011 22.812 57.011 21.8922C57.011 20.7861 57.2533 19.7918 57.7381 18.9093C58.2352 18.0144 58.9064 17.3184 59.7515 16.8213C60.5967 16.3117 61.5289 16.0569 62.548 16.0569C64.0892 16.0569 65.1767 16.5603 65.8106 17.567L66.0716 16.206H68.9799ZM62.2311 23.9803C62.8028 23.9803 63.3124 23.8435 63.7598 23.5701C64.2073 23.2843 64.5553 22.8927 64.8038 22.3956C65.0524 21.8984 65.1767 21.3267 65.1767 20.6804C65.1767 19.9968 64.9716 19.4562 64.5615 19.0585C64.1638 18.6607 63.6045 18.4619 62.8836 18.4619C62.3119 18.4619 61.8023 18.6048 61.3549 18.8907C60.9074 19.1641 60.5594 19.5494 60.3108 20.0465C60.0623 20.5437 59.938 21.1154 59.938 21.7617C59.938 22.4453 60.1368 22.986 60.5346 23.3837C60.9447 23.7814 61.5102 23.9803 62.2311 23.9803Z" fill="url(#paint0_linear_4435_1587)"/>
<path d="M72.5861 26.3852C71.7161 26.3852 70.8895 26.292 70.1065 26.1056C69.3359 25.9067 68.7331 25.6519 68.2981 25.3412L69.4167 23.2345C69.8517 23.5204 70.38 23.7503 71.0014 23.9243C71.6353 24.0983 72.2691 24.1853 72.903 24.1853C73.5617 24.1853 74.0527 24.1046 74.3758 23.943C74.699 23.769 74.8605 23.5266 74.8605 23.2159C74.8605 22.9673 74.7176 22.7871 74.4318 22.6752C74.1459 22.5634 73.686 22.4453 73.0522 22.321C72.3313 22.1843 71.7347 22.0352 71.2624 21.8736C70.8025 21.712 70.3986 21.451 70.0506 21.0906C69.715 20.7177 69.5472 20.2143 69.5472 19.5805C69.5472 18.4743 70.0071 17.6105 70.9268 16.9891C71.859 16.3676 73.077 16.0569 74.5809 16.0569C75.2769 16.0569 75.9543 16.1315 76.613 16.2806C77.2717 16.4298 77.831 16.6348 78.2909 16.8958L77.2469 19.0212C76.4266 18.5116 75.4385 18.2568 74.2826 18.2568C73.6487 18.2568 73.164 18.35 72.8284 18.5364C72.5053 18.7229 72.3437 18.959 72.3437 19.2449C72.3437 19.5059 72.4866 19.6985 72.7725 19.8228C73.0584 19.9347 73.5369 20.059 74.208 20.1957C74.9165 20.3324 75.4944 20.4816 75.9419 20.6431C76.4017 20.7923 76.7994 21.0471 77.135 21.4075C77.4706 21.7679 77.6384 22.2589 77.6384 22.8803C77.6384 23.9989 77.1661 24.8627 76.2215 25.4717C75.2893 26.0807 74.0775 26.3852 72.5861 26.3852Z" fill="url(#paint1_linear_4435_1587)"/>
<path d="M85.5664 20.5686L89.0154 26.2361H85.641L83.2547 22.3397L81.4835 23.8125L80.9988 26.2361H78.0905L80.8497 12.4028H83.758L82.2106 20.1398L87.0206 16.206H90.8051L85.5664 20.5686Z" fill="url(#paint2_linear_4435_1587)"/>
<path d="M52.7231 10.3894V5.72864C52.7231 3.66937 54.3925 2 56.4518 2H96.5347C98.5939 2 100.263 3.66937 100.263 5.72864V31.8291C100.263 33.8884 98.5939 35.5578 96.5347 35.5578H90.0096L92.1902 45.7343C92.3808 46.6238 91.3149 47.2316 90.6465 46.6146L80.688 37.4221H56.4518C54.3925 37.4221 52.7231 35.7527 52.7231 33.6935V31.8291" stroke="url(#paint3_linear_4435_1587)" stroke-width="2.79648"/>
<defs>
<linearGradient id="paint0_linear_4435_1587" x1="57.011" y1="12.4028" x2="64.8651" y2="34.583" gradientUnits="userSpaceOnUse">
<stop stop-color="#485BFF"/>
<stop offset="1" stop-color="#FF59F8"/>
</linearGradient>
<linearGradient id="paint1_linear_4435_1587" x1="57.011" y1="12.4028" x2="64.8651" y2="34.583" gradientUnits="userSpaceOnUse">
<stop stop-color="#485BFF"/>
<stop offset="1" stop-color="#FF59F8"/>
</linearGradient>
<linearGradient id="paint2_linear_4435_1587" x1="57.011" y1="12.4028" x2="64.8651" y2="34.583" gradientUnits="userSpaceOnUse">
<stop stop-color="#485BFF"/>
<stop offset="1" stop-color="#FF59F8"/>
</linearGradient>
<linearGradient id="paint3_linear_4435_1587" x1="52.7231" y1="2" x2="91.8739" y2="50.4723" gradientUnits="userSpaceOnUse">
<stop stop-color="#485BFF"/>
<stop offset="1" stop-color="#FF59F8"/>
</linearGradient>
</defs>
</svg>
